# xmcd
#
# Track frame offsets:
# 150
# 12545
# 25707
# 38792
# 50992
# 62667
# 74567
# 86965
# 98680
# 109487
# 121290
# 132407
# 144785
# 156862
# 167752
# 178755
# 191405
# 201275
# 212825
# 223652
#
# Disc length: 3147 seconds
#
# Revision: 0
# Processed by: cddbd v1.4PL0 Copyright (c) Steve Scherf et al.
# Submitted via: Audion 2.5.0 (http://www.panic.com/audion/)
#
DISCID=320c4914
DTITLE=Hank Williams - The Best of Hank Willliams
DYEAR=1900
DGENRE=
TTITLE0=Cold Cold Heart
TTITLE1=hey Good Lookin'
TTITLE2=Jambalaya
TTITLE3=Your Cheatin' Heart
TTITLE4=Kaw-liga
TTITLE5=Take These Chains From My Heart
TTITLE6=half AS Much
TTITLE7=Settin' The Woods On Fire
TTITLE8=I Can't Help It
TTITLE9=You Win Again
TTITLE10=Crazy Heart
TTITLE11=Love Sick Blues
TTITLE12=Long Gone Lonesome Blues
TTITLE13=Why Don't You Love Me
TTITLE14=I'll Never Get Out of This World Alive
TTITLE15=I'm So Lonesome I Could Cry
TTITLE16=Honky Tonk Blues
TTITLE17=My Bucket's Got A Hole In it
TTITLE18=Moanin' The Blues
TTITLE19=Move It Over
EXTD=
EXTT0=
EXTT1=
EXTT2=
EXTT3=
EXTT4=
EXTT5=
EXTT6=
EXTT7=
EXTT8=
EXTT9=
EXTT10=
EXTT11=
EXTT12=
EXTT13=
EXTT14=
EXTT15=
EXTT16=
EXTT17=
EXTT18=
EXTT19=
PLAYORDER=
